HIERARCHY
ROOT Hips
{
	OFFSET 0 0 0
	CHANNELS 6 Xposition Yposition Zposition Zrotation Yrotation Xrotation 
	JOINT Spine
	{
		OFFSET -0.000000 8.814246 -2.080107
		CHANNELS 3 Zrotation Yrotation Xrotation
		JOINT Spine1
		{
			OFFSET 0.000000 8.844141 0.000000
			CHANNELS 3 Zrotation Yrotation Xrotation
			JOINT Spine2
			{
				OFFSET -0.000000 11.682268 0.000000
				CHANNELS 3 Zrotation Yrotation Xrotation
				JOINT Spine3
				{
					OFFSET 0.000000 11.746700 0.000000
					CHANNELS 3 Zrotation Yrotation Xrotation
					JOINT Neck
					{
						OFFSET -0.000000 17.658264 -0.000000
						CHANNELS 3 Zrotation Yrotation Xrotation
						JOINT Neck1
						{
							OFFSET -0.000000 5.101515 -0.000000
							CHANNELS 3 Zrotation Yrotation Xrotation
							JOINT Head
							{
								OFFSET 0.000000 5.101515 0.000000
								CHANNELS 3 Zrotation Yrotation Xrotation
								JOINT HeadEnd
								{
									OFFSET 0.000000 11.655085 0.000000
									CHANNELS 3 Zrotation Yrotation Xrotation
									End Site
									{
										OFFSET 0.000000 0.000000 0.000000
									}
								}
							}
						}
					}
					JOINT RightShoulder
					{
						OFFSET -2.625389 11.175210 0.000000
						CHANNELS 3 Zrotation Yrotation Xrotation
						JOINT RightArm
						{
							OFFSET -0.000000 10.434715 -0.000000
							CHANNELS 3 Zrotation Yrotation Xrotation
							JOINT RightForeArm
							{
								OFFSET -0.000000 29.628420 0.000000
								CHANNELS 3 Zrotation Yrotation Xrotation
								JOINT RightHand
								{
									OFFSET -0.000000 22.857611 0.000000
									CHANNELS 3 Zrotation Yrotation Xrotation
									JOINT RightHandThumb1
									{
										OFFSET -2.867323 3.959563 2.944291
										CHANNELS 3 Zrotation Yrotation Xrotation
										JOINT RightHandThumb2
										{
											OFFSET 0.000000 3.350399 0.000000
											CHANNELS 3 Zrotation Yrotation Xrotation
											JOINT RightHandThumb3
											{
												OFFSET 0.000000 3.756509 -0.000000
												CHANNELS 3 Zrotation Yrotation Xrotation
												JOINT RightHandThumb4
												{
													OFFSET 0.000000 3.147345 0.000000
													CHANNELS 3 Zrotation Yrotation Xrotation
													End Site
													{
														OFFSET 0.000000 0.000000 0.000000
													}
												}
											}
										}
									}
									JOINT RightHandIndex1
									{
										OFFSET -0.086752 10.030893 2.345280
										CHANNELS 3 Zrotation Yrotation Xrotation
										JOINT RightHandIndex2
										{
											OFFSET -0.000000 4.061090 0.000000
											CHANNELS 3 Zrotation Yrotation Xrotation
											JOINT RightHandIndex3
											{
												OFFSET -0.000000 3.248873 0.000000
												CHANNELS 3 Zrotation Yrotation Xrotation
												JOINT RightHandIndex4
												{
													OFFSET 0.000000 2.639709 -0.000000
													CHANNELS 3 Zrotation Yrotation Xrotation
													End Site
													{
														OFFSET 0.000000 0.000000 0.000000
													}
												}
											}
										}
									}
									JOINT RightHandMiddle1
									{
										OFFSET 0.104102 9.502952 0.006768
										CHANNELS 3 Zrotation Yrotation Xrotation
										JOINT RightHandMiddle2
										{
											OFFSET 0.000000 4.568727 0.000000
											CHANNELS 3 Zrotation Yrotation Xrotation
											JOINT RightHandMiddle3
											{
												OFFSET 0.000000 3.654981 -0.000000
												CHANNELS 3 Zrotation Yrotation Xrotation
												JOINT RightHandMiddle4
												{
													OFFSET -0.000000 2.741236 -0.000000
													CHANNELS 3 Zrotation Yrotation Xrotation
													End Site
													{
														OFFSET 0.000000 0.000000 0.000000
													}
												}
											}
										}
									}
									JOINT RightHandRing1
									{
										OFFSET 0.086752 8.921708 -2.267442
										CHANNELS 3 Zrotation Yrotation Xrotation
										JOINT RightHandRing2
										{
											OFFSET -0.000000 4.061090 0.000000
											CHANNELS 3 Zrotation Yrotation Xrotation
											JOINT RightHandRing3
											{
												OFFSET 0.000000 3.654981 -0.000000
												CHANNELS 3 Zrotation Yrotation Xrotation
												JOINT RightHandRing4
												{
													OFFSET 0.000000 2.741236 -0.000000
													CHANNELS 3 Zrotation Yrotation Xrotation
													End Site
													{
														OFFSET 0.000000 0.000000 0.000000
													}
												}
											}
										}
									}
									JOINT RightHandPinky1
									{
										OFFSET -0.173504 7.976997 -4.467199
										CHANNELS 3 Zrotation Yrotation Xrotation
										JOINT RightHandPinky2
										{
											OFFSET 0.000000 3.350399 -0.000000
											CHANNELS 3 Zrotation Yrotation Xrotation
											JOINT RightHandPinky3
											{
												OFFSET -0.000000 2.842763 0.000000
												CHANNELS 3 Zrotation Yrotation Xrotation
												JOINT RightHandPinky4
												{
													OFFSET -0.000000 2.639709 0.000000
													CHANNELS 3 Zrotation Yrotation Xrotation
													End Site
													{
														OFFSET 0.000000 0.000000 0.000000
													}
												}
											}
										}
									}
									JOINT RightForeArmEnd
									{
										OFFSET 0.000000 0.000000 0.000000
										CHANNELS 3 Zrotation Yrotation Xrotation
										End Site
										{
											OFFSET 0.000000 0.000000 0.000000
										}
									}
								}
								JOINT RightArmEnd
								{
									OFFSET 0.000000 0.000000 0.000000
									CHANNELS 3 Zrotation Yrotation Xrotation
									End Site
									{
										OFFSET 0.000000 0.000000 0.000000
									}
								}
							}
						}
					}
					JOINT LeftShoulder
					{
						OFFSET 2.625389 11.175210 0.000000
						CHANNELS 3 Zrotation Yrotation Xrotation
						JOINT LeftArm
						{
							OFFSET 0.000000 10.813635 -0.000000
							CHANNELS 3 Zrotation Yrotation Xrotation
							JOINT LeftForeArm
							{
								OFFSET 0.000000 28.724781 0.000000
								CHANNELS 3 Zrotation Yrotation Xrotation
								JOINT LeftHand
								{
									OFFSET 0.644384 25.716167 -0.328871
									CHANNELS 3 Zrotation Yrotation Xrotation
									JOINT LeftHandThumb1
									{
										OFFSET 2.867323 3.959563 2.944291
										CHANNELS 3 Zrotation Yrotation Xrotation
										JOINT LeftHandThumb2
										{
											OFFSET 0.000000 3.350399 0.000000
											CHANNELS 3 Zrotation Yrotation Xrotation
											JOINT LeftHandThumb3
											{
												OFFSET -0.000000 3.756509 0.000000
												CHANNELS 3 Zrotation Yrotation Xrotation
												JOINT LeftHandThumb4
												{
													OFFSET -0.000000 3.100000 0.000000
													CHANNELS 3 Zrotation Yrotation Xrotation
													End Site
													{
														OFFSET 0.000000 0.000000 0.000000
													}
												}
											}
										}
									}
									JOINT LeftHandIndex1
									{
										OFFSET 0.086752 10.030893 2.345280
										CHANNELS 3 Zrotation Yrotation Xrotation
										JOINT LeftHandIndex2
										{
											OFFSET -0.000000 4.061090 -0.000000
											CHANNELS 3 Zrotation Yrotation Xrotation
											JOINT LeftHandIndex3
											{
												OFFSET 0.000000 3.248873 -0.000000
												CHANNELS 3 Zrotation Yrotation Xrotation
												JOINT LeftHandIndex4
												{
													OFFSET 0.000000 2.639709 -0.000000
													CHANNELS 3 Zrotation Yrotation Xrotation
													End Site
													{
														OFFSET 0.000000 0.000000 0.000000
													}
												}
											}
										}
									}
									JOINT LeftHandMiddle1
									{
										OFFSET -0.104102 9.502952 0.006768
										CHANNELS 3 Zrotation Yrotation Xrotation
										JOINT LeftHandMiddle2
										{
											OFFSET -0.000000 4.568727 -0.000000
											CHANNELS 3 Zrotation Yrotation Xrotation
											JOINT LeftHandMiddle3
											{
												OFFSET 0.000000 3.654981 0.000000
												CHANNELS 3 Zrotation Yrotation Xrotation
												JOINT LeftHandMiddle4
												{
													OFFSET 0.000000 2.741236 -0.000000
													CHANNELS 3 Zrotation Yrotation Xrotation
													End Site
													{
														OFFSET 0.000000 0.000000 0.000000
													}
												}
											}
										}
									}
									JOINT LeftHandRing1
									{
										OFFSET -0.086752 8.921708 -2.267442
										CHANNELS 3 Zrotation Yrotation Xrotation
										JOINT LeftHandRing2
										{
											OFFSET 0.000000 4.061090 0.000000
											CHANNELS 3 Zrotation Yrotation Xrotation
											JOINT LeftHandRing3
											{
												OFFSET 0.000000 3.654981 0.000000
												CHANNELS 3 Zrotation Yrotation Xrotation
												JOINT LeftHandRing4
												{
													OFFSET 0.000000 2.741236 0.000000
													CHANNELS 3 Zrotation Yrotation Xrotation
													End Site
													{
														OFFSET 0.000000 0.000000 0.000000
													}
												}
											}
										}
									}
									JOINT LeftHandPinky1
									{
										OFFSET 0.173504 7.976997 -4.467199
										CHANNELS 3 Zrotation Yrotation Xrotation
										JOINT LeftHandPinky2
										{
											OFFSET -0.000000 3.350399 -0.000000
											CHANNELS 3 Zrotation Yrotation Xrotation
											JOINT LeftHandPinky3
											{
												OFFSET 0.000000 2.842763 0.000000
												CHANNELS 3 Zrotation Yrotation Xrotation
												JOINT LeftHandPinky4
												{
													OFFSET -0.000000 2.639709 -0.000000
													CHANNELS 3 Zrotation Yrotation Xrotation
													End Site
													{
														OFFSET 0.000000 0.000000 0.000000
													}
												}
											}
										}
									}
									JOINT LeftForeArmEnd
									{
										OFFSET 0.000000 0.000000 0.000000
										CHANNELS 3 Zrotation Yrotation Xrotation
										End Site
										{
											OFFSET 0.000000 0.000000 0.000000
										}
									}
								}
								JOINT LeftArmEnd
								{
									OFFSET 0.000000 0.000000 0.000000
									CHANNELS 3 Zrotation Yrotation Xrotation
									End Site
									{
										OFFSET 0.000000 0.000000 0.000000
									}
								}
							}
						}
					}
				}
			}
		}
	}
	JOINT RightUpLeg
	{
		OFFSET -11.289943 0.000000 0.000000
		CHANNELS 3 Zrotation Yrotation Xrotation
		JOINT RightLeg
		{
			OFFSET 0.000000 -38.200325 0.000000
			CHANNELS 3 Zrotation Yrotation Xrotation
			JOINT RightFoot
			{
				OFFSET -0.000000 -39.900856 -0.000000
				CHANNELS 3 Zrotation Yrotation Xrotation
				JOINT RightToeBase
				{
					OFFSET 0.000000 0.000000 15.261641
					CHANNELS 3 Zrotation Yrotation Xrotation
					JOINT RightToeBaseEnd
					{
						OFFSET 0.000000 0.000000 7.370709
						CHANNELS 3 Zrotation Yrotation Xrotation
						End Site
						{
							OFFSET 0.000000 0.000000 0.000000
						}
					}
				}
				JOINT RightLegEnd
				{
					OFFSET 0.000000 0.000000 0.000000
					CHANNELS 3 Zrotation Yrotation Xrotation
					End Site
					{
						OFFSET 0.000000 0.000000 0.000000
					}
				}
			}
			JOINT RightUpLegEnd
			{
				OFFSET 0.000000 0.000000 0.000000
				CHANNELS 3 Zrotation Yrotation Xrotation
				End Site
				{
					OFFSET 0.000000 0.000000 0.000000
				}
			}
		}
	}
	JOINT LeftUpLeg
	{
		OFFSET 11.315661 -0.000000 0.000000
		CHANNELS 3 Zrotation Yrotation Xrotation
		JOINT LeftLeg
		{
			OFFSET -0.000000 -38.200325 -0.000000
			CHANNELS 3 Zrotation Yrotation Xrotation
			JOINT LeftFoot
			{
				OFFSET 0.000000 -39.900856 -0.000000
				CHANNELS 3 Zrotation Yrotation Xrotation
				JOINT LeftToeBase
				{
					OFFSET -0.000000 -0.000000 15.261641
					CHANNELS 3 Zrotation Yrotation Xrotation
					JOINT LeftToeBaseEnd
					{
						OFFSET 0.000000 -0.000000 7.539996
						CHANNELS 3 Zrotation Yrotation Xrotation
						End Site
						{
							OFFSET 0.000000 0.000000 0.000000
						}
					}
				}
				JOINT LeftLegEnd
				{
					OFFSET 0.000000 0.000000 0.000000
					CHANNELS 3 Zrotation Yrotation Xrotation
					End Site
					{
						OFFSET 0.000000 0.000000 0.000000
					}
				}
			}
			JOINT LeftUpLegEnd
			{
				OFFSET 0.000000 0.000000 0.000000
				CHANNELS 3 Zrotation Yrotation Xrotation
				End Site
				{
					OFFSET 0.000000 0.000000 0.000000
				}
			}
		}
	}
}
MOTION
Frames: 4
Frame Time: 0.016667
0 0 0 0 0 0 0.032149 0.185544 5.196089 -1.077438 0.044906 0.609024 0.499205 -2.322823 3.969465 0.275058 -0.698947 2.181987 2.319827 0.309552 4.578452 0.267210 1.529812 -3.359346 -0.569612 -0.789163 -18.313461 0.000000 0.000000 0.000000 91.722275 -0.247816 8.693417 71.943634 -26.192917 -2.193481 -0.178419 10.837836 22.064981 8.427218 19.712315 -5.734273 10.338415 -1.814722 40.003895 -0.000000 -0.000000 -25.200001 0.000000 0.000000 -17.500000 -0.000000 -0.000000 0.000000 11.324578 -0.000000 -8.995296 7.927205 -0.000000 -0.000000 7.927205 0.000000 0.000000 0.000000 0.000000 -0.000000 9.895714 -0.000000 -10.610012 6.927000 0.000000 0.000000 6.927000 0.000000 -0.000000 -0.000000 0.000000 0.000000 9.951447 -0.000000 -11.425582 6.966012 0.000000 -0.000000 6.966012 -0.000000 0.000000 0.000000 0.000000 -0.000000 9.344564 -0.000000 -13.161468 6.541195 -0.000000 0.000000 6.541195 -0.000000 -0.000000 0.000000 0.000000 0.000000 -0.000000 -0.000000 -0.000000 -0.000000 0.000000 -0.000000 -90.069054 0.019821 4.050842 -76.151833 14.125315 -14.474479 -0.908202 -7.685236 38.821301 -1.588159 -29.475204 -18.515471 -10.937045 1.865515 39.738766 -0.000000 -0.000000 -26.639999 -0.000000 0.000000 -18.500000 0.000000 -0.000000 -0.000000 -15.318817 0.000000 -12.101731 -10.723172 -0.000000 0.000000 -10.723172 0.000000 -0.000000 -0.000000 0.000000 0.000000 -14.544947 0.000000 -12.049081 -10.181462 0.000000 -0.000000 -10.181462 -0.000000 -0.000000 0.000000 0.000000 0.000000 -16.552656 -0.000000 -11.391721 -11.586859 -0.000000 -0.000000 -11.586859 0.000000 0.000000 0.000000 0.000000 -0.000000 -17.349575 0.000000 -10.425930 -12.144703 0.000000 0.000000 -12.144703 -0.000000 -0.000000 -0.000000 0.000000 -0.000000 -0.000000 0.000000 -0.000000 0.000000 -0.000000 -0.000000 -1.211460 -10.656520 12.358644 -0.082310 -0.664898 3.666853 -1.934823 -7.883547 18.173285 -0.954566 0.891739 -18.408693 -0.000000 0.000000 0.000000 -0.000000 0.000000 -0.000000 0.000000 0.000000 0.000000 -1.905135 -6.642635 7.956563 0.046833 0.374251 7.407403 4.028358 -1.769341 17.378429 0.152764 -0.391957 -20.575581 -0.000000 0.000000 0.000000 0.000000 -0.000000 -0.000000 0.000000 0.000000 0.000000 
0 0 0 0 0 0 0.010746 0.148838 5.158618 -1.057938 0.054016 0.681846 0.492481 -2.299423 3.973818 0.260906 -0.688421 2.201151 2.373105 0.258355 4.573633 0.263006 1.492963 -3.368943 -0.581618 -0.803578 -18.290916 0.000000 -0.000000 0.000000 91.650391 -0.238309 8.749583 71.804535 -26.887400 -1.935502 -0.123481 10.916494 22.813147 8.236285 18.943138 -5.762280 10.338415 -1.814722 40.003895 0.000000 -0.000000 -25.200001 -0.000000 0.000000 -17.500000 0.000000 0.000000 0.000000 11.444800 0.000000 -8.781513 8.011360 -0.000000 0.000000 8.011360 0.000000 0.000000 0.000000 0.000000 -0.000000 9.982114 0.000000 -10.430311 6.987480 -0.000000 0.000000 6.987480 0.000000 0.000000 -0.000000 -0.000000 0.000000 9.942117 0.000000 -11.280311 6.959482 0.000000 -0.000000 6.959482 0.000000 -0.000000 0.000000 0.000000 -0.000000 9.228891 0.000000 -13.016499 6.460224 0.000000 -0.000000 6.460224 -0.000000 0.000000 -0.000000 0.000000 0.000000 -0.000000 -0.000000 -0.000000 -0.000000 0.000000 -0.000000 -89.958694 0.012109 4.141370 -76.328606 14.529648 -14.070757 -0.846565 -7.623101 39.261288 -1.324816 -29.073313 -18.451773 -11.236528 1.888869 39.607235 0.000000 0.000000 -27.360001 -0.000000 -0.000000 -19.000000 0.000000 -0.000000 0.000000 -15.628693 -0.000000 -12.080565 -10.940085 -0.000000 0.000000 -10.940085 0.000000 0.000000 0.000000 0.000000 0.000000 -14.831388 0.000000 -12.090570 -10.381972 -0.000000 -0.000000 -10.381972 -0.000000 0.000000 0.000000 0.000000 -0.000000 -16.805618 0.000000 -11.562481 -11.763933 0.000000 0.000000 -11.763933 0.000000 0.000000 0.000000 -0.000000 -0.000000 -17.562298 0.000000 -10.730050 -12.293609 -0.000000 -0.000000 -12.293609 0.000000 0.000000 0.000000 0.000000 -0.000000 -0.000000 0.000000 -0.000000 -0.000000 -0.000000 0.000000 -1.214870 -10.710079 12.309004 -0.082246 -0.664834 3.666414 -1.940024 -7.913350 18.223539 -0.951423 0.890038 -18.442980 -0.000000 0.000000 0.000000 -0.000000 0.000000 -0.000000 -0.000000 0.000000 -0.000000 -1.897339 -6.637435 7.881289 0.047164 0.374217 7.405589 4.034899 -1.872676 17.449982 0.152405 -0.390773 -20.614100 -0.000000 0.000000 -0.000000 -0.000000 0.000000 -0.000000 0.000000 -0.000000 0.000000 
0 0 0 0 0 0 -0.033645 -0.010253 5.222380 -1.031961 0.059533 0.677567 0.495591 -2.283051 3.946379 0.245862 -0.682999 2.206928 2.420766 0.212451 4.578098 0.257200 1.463856 -3.372786 -0.596142 -0.823585 -18.261461 0.000000 -0.000000 0.000000 91.618958 -0.235077 8.810912 71.607529 -28.015301 -1.732421 -0.074600 11.396422 23.629959 8.018520 18.313473 -5.775813 10.338415 -1.814722 40.003895 -0.000000 -0.000000 -25.200001 -0.000000 0.000000 -17.500000 0.000000 0.000000 0.000000 11.692080 0.000000 -8.606953 8.184456 -0.000000 0.000000 8.184456 -0.000000 -0.000000 0.000000 0.000000 0.000000 10.198223 0.000000 -10.272590 7.138756 -0.000000 0.000000 7.138756 0.000000 0.000000 -0.000000 0.000000 0.000000 10.083473 0.000000 -11.133539 7.058431 -0.000000 0.000000 7.058431 -0.000000 0.000000 0.000000 0.000000 -0.000000 9.281759 0.000000 -12.866799 6.497231 -0.000000 0.000000 6.497231 -0.000000 -0.000000 0.000000 0.000000 0.000000 -0.000000 -0.000000 -0.000000 -0.000000 0.000000 -0.000000 -89.870613 0.005668 4.241918 -76.436790 14.975990 -13.660984 -0.786709 -7.655687 39.711472 -1.256985 -28.492907 -18.144886 -11.236528 1.888869 39.607235 -0.000000 0.000000 -27.360001 0.000000 0.000000 -19.000000 0.000000 -0.000000 0.000000 -15.810178 0.000000 -12.330727 -11.067124 -0.000000 -0.000000 -11.067124 -0.000000 -0.000000 0.000000 0.000000 0.000000 -14.971757 0.000000 -12.260409 -10.480230 -0.000000 0.000000 -10.480230 -0.000000 0.000000 -0.000000 0.000000 0.000000 -16.871222 -0.000000 -11.621099 -11.809855 0.000000 0.000000 -11.809855 -0.000000 -0.000000 0.000000 -0.000000 -0.000000 -17.538649 0.000000 -10.631271 -12.277054 -0.000000 0.000000 -12.277054 -0.000000 -0.000000 -0.000000 0.000000 -0.000000 -0.000000 0.000000 -0.000000 -0.000000 -0.000000 -0.000000 -1.227241 -10.897684 12.257083 -0.082174 -0.664732 3.665039 -1.941196 -7.948822 18.277658 -0.948401 0.888494 -18.485962 -0.000000 -0.000000 0.000000 -0.000000 -0.000000 -0.000000 0.000000 0.000000 0.000000 -1.894960 -6.774958 7.751241 0.047494 0.374298 7.439332 4.034641 -1.974257 17.524862 0.151888 -0.389764 -20.640696 -0.000000 -0.000000 0.000000 0.000000 -0.000000 -0.000000 0.000000 -0.000000 0.000000 
0 0 0 0 0 0 -0.020656 -0.077454 5.244927 -1.026985 0.064236 0.698724 0.474785 -2.283201 3.918701 0.214823 -0.681828 2.187457 2.465124 0.189642 4.604495 0.251677 1.462399 -3.360147 -0.609414 -0.834437 -18.218739 0.000000 -0.000000 0.000000 91.604507 -0.234502 8.874809 71.408020 -29.056065 -1.514647 -0.055043 11.851676 24.366159 7.848221 17.558533 -5.742758 10.637672 -1.840801 39.870987 -0.000000 -0.000000 -25.920000 -0.000000 0.000000 -18.000000 0.000000 0.000000 0.000000 11.966117 -0.000000 -8.375803 8.376282 -0.000000 0.000000 8.376282 0.000000 0.000000 0.000000 -0.000000 -0.000000 10.463400 0.000000 -10.090485 7.324380 0.000000 -0.000000 7.324380 0.000000 0.000000 -0.000000 -0.000000 0.000000 10.338002 0.000000 -11.007243 7.236601 -0.000000 0.000000 7.236601 -0.000000 -0.000000 -0.000000 0.000000 -0.000000 9.513752 0.000000 -12.792823 6.659626 0.000000 0.000000 6.659626 0.000000 -0.000000 0.000000 0.000000 0.000000 -0.000000 -0.000000 -0.000000 -0.000000 0.000000 -0.000000 -89.788383 -0.000646 4.343399 -76.497162 15.488698 -13.325515 -0.743696 -7.759480 40.217491 -1.200942 -27.838558 -17.750372 -11.236528 1.888869 39.607235 0.000000 0.000000 -27.360001 0.000000 0.000000 -19.000000 -0.000000 0.000000 0.000000 -15.957585 -0.000000 -12.529014 -11.170310 0.000000 0.000000 -11.170310 -0.000000 -0.000000 0.000000 -0.000000 0.000000 -15.095874 -0.000000 -12.321301 -10.567112 0.000000 0.000000 -10.567112 -0.000000 -0.000000 0.000000 -0.000000 -0.000000 -16.941145 -0.000000 -11.564904 -11.858801 -0.000000 -0.000000 -11.858801 -0.000000 -0.000000 0.000000 -0.000000 -0.000000 -17.529696 -0.000000 -10.471354 -12.270787 0.000000 0.000000 -12.270787 -0.000000 -0.000000 0.000000 0.000000 0.000000 -0.000000 0.000000 -0.000000 -0.000000 -0.000000 -0.000000 -1.230713 -10.992133 12.217770 -0.082094 -0.664117 3.662711 -1.937009 -7.981828 18.320408 -0.945761 0.887142 -18.519682 -0.000000 -0.000000 0.000000 -0.000000 0.000000 -0.000000 0.000000 -0.000000 0.000000 -1.893168 -6.844854 7.668833 0.047822 0.374507 7.450572 4.040480 -2.043871 17.582148 0.151271 -0.388919 -20.670042 -0.000000 0.000000 0.000000 -0.000000 0.000000 -0.000000 0.000000 -0.000000 0.000000 
